<mxfile host="app.diagrams.net" modified="2021-06-04T04:21:14.947Z" agent="5.0 (Windows NT 10.0; Win64; x64) AppleWebKit/537.36 (KHTML, like Gecko) Chrome/91.0.4472.77 Safari/537.36" etag="_R0dJvnxdtURLsnouxwl" version="14.7.5" type="github">
  <diagram id="xF30JikxYd3ftVAX5R-0" name="Page-1">
    <mxGraphModel dx="2249" dy="1931" grid="1" gridSize="10" guides="1" tooltips="1" connect="1" arrows="1" fold="1" page="1" pageScale="1" pageWidth="827" pageHeight="1169" math="0" shadow="0">
      <root>
        <mxCell id="0" />
        <mxCell id="1" parent="0" />
        <mxCell id="xzs_y62n60LzMfR8loIl-2" value="" style="rounded=1;whiteSpace=wrap;html=1;" parent="1" vertex="1">
          <mxGeometry x="-510" y="-120" width="540" height="220" as="geometry" />
        </mxCell>
        <mxCell id="xzs_y62n60LzMfR8loIl-4" value="" style="strokeWidth=2;html=1;shape=mxgraph.flowchart.database;whiteSpace=wrap;fillColor=#fff2cc;strokeColor=#d6b656;shadow=0;" parent="1" vertex="1">
          <mxGeometry x="-490" y="-75" width="100" height="130" as="geometry" />
        </mxCell>
        <mxCell id="xzs_y62n60LzMfR8loIl-7" value="&lt;font style=&quot;font-size: 16px&quot;&gt;Kafka cluster&lt;/font&gt;" style="text;html=1;strokeColor=none;fillColor=none;align=center;verticalAlign=middle;whiteSpace=wrap;rounded=0;" parent="1" vertex="1">
          <mxGeometry x="-500" y="-120" width="110" height="30" as="geometry" />
        </mxCell>
        <mxCell id="xzs_y62n60LzMfR8loIl-8" value="&lt;font style=&quot;font-size: 14px&quot;&gt;Kafka&lt;br&gt;broker&lt;/font&gt;" style="text;html=1;strokeColor=none;fillColor=none;align=center;verticalAlign=middle;whiteSpace=wrap;rounded=0;" parent="1" vertex="1">
          <mxGeometry x="-470" y="-20" width="60" height="50" as="geometry" />
        </mxCell>
        <mxCell id="xzs_y62n60LzMfR8loIl-9" value="" style="strokeWidth=2;html=1;shape=mxgraph.flowchart.database;whiteSpace=wrap;fillColor=#fff2cc;strokeColor=#d6b656;" parent="1" vertex="1">
          <mxGeometry x="-110" y="-75" width="100" height="130" as="geometry" />
        </mxCell>
        <mxCell id="xzs_y62n60LzMfR8loIl-10" value="&lt;font style=&quot;font-size: 14px&quot;&gt;Kafka&lt;br&gt;broker&lt;/font&gt;" style="text;html=1;strokeColor=none;fillColor=none;align=center;verticalAlign=middle;whiteSpace=wrap;rounded=0;" parent="1" vertex="1">
          <mxGeometry x="-90" y="-20" width="60" height="50" as="geometry" />
        </mxCell>
        <mxCell id="xzs_y62n60LzMfR8loIl-11" value="" style="strokeWidth=2;html=1;shape=mxgraph.flowchart.database;whiteSpace=wrap;fillColor=#fff2cc;strokeColor=#d6b656;" parent="1" vertex="1">
          <mxGeometry x="-300" y="-75" width="100" height="130" as="geometry" />
        </mxCell>
        <mxCell id="xzs_y62n60LzMfR8loIl-12" value="&lt;font style=&quot;font-size: 14px&quot;&gt;Kafka&lt;br&gt;broker&lt;/font&gt;" style="text;html=1;strokeColor=none;fillColor=none;align=center;verticalAlign=middle;whiteSpace=wrap;rounded=0;" parent="1" vertex="1">
          <mxGeometry x="-280" y="-20" width="60" height="50" as="geometry" />
        </mxCell>
        <mxCell id="xzs_y62n60LzMfR8loIl-13" value="" style="ellipse;whiteSpace=wrap;html=1;fillColor=#d5e8d4;strokeColor=#82b366;shadow=1;" parent="1" vertex="1">
          <mxGeometry x="-580" y="-260" width="130" height="60" as="geometry" />
        </mxCell>
        <mxCell id="xzs_y62n60LzMfR8loIl-14" value="&lt;font style=&quot;font-size: 14px&quot;&gt;Produer&lt;/font&gt;" style="text;html=1;strokeColor=none;fillColor=none;align=center;verticalAlign=middle;whiteSpace=wrap;rounded=0;" parent="1" vertex="1">
          <mxGeometry x="-550" y="-240" width="70" height="20" as="geometry" />
        </mxCell>
        <mxCell id="xzs_y62n60LzMfR8loIl-15" value="" style="ellipse;whiteSpace=wrap;html=1;fillColor=#d5e8d4;strokeColor=#82b366;shadow=1;" parent="1" vertex="1">
          <mxGeometry x="-390" y="-260" width="130" height="60" as="geometry" />
        </mxCell>
        <mxCell id="xzs_y62n60LzMfR8loIl-16" value="&lt;font style=&quot;font-size: 14px&quot;&gt;Produer&lt;/font&gt;" style="text;html=1;strokeColor=none;fillColor=none;align=center;verticalAlign=middle;whiteSpace=wrap;rounded=0;" parent="1" vertex="1">
          <mxGeometry x="-360" y="-240" width="70" height="20" as="geometry" />
        </mxCell>
        <mxCell id="xzs_y62n60LzMfR8loIl-17" value="" style="ellipse;whiteSpace=wrap;html=1;fillColor=#d5e8d4;strokeColor=#82b366;shadow=1;" parent="1" vertex="1">
          <mxGeometry x="-200" y="-260" width="130" height="60" as="geometry" />
        </mxCell>
        <mxCell id="xzs_y62n60LzMfR8loIl-18" value="&lt;font style=&quot;font-size: 14px&quot;&gt;Produer&lt;/font&gt;" style="text;html=1;strokeColor=none;fillColor=none;align=center;verticalAlign=middle;whiteSpace=wrap;rounded=0;" parent="1" vertex="1">
          <mxGeometry x="-170" y="-240" width="70" height="20" as="geometry" />
        </mxCell>
        <mxCell id="xzs_y62n60LzMfR8loIl-20" value="" style="ellipse;whiteSpace=wrap;html=1;fillColor=#d5e8d4;strokeColor=#82b366;shadow=1;" parent="1" vertex="1">
          <mxGeometry x="10" y="-260" width="130" height="60" as="geometry" />
        </mxCell>
        <mxCell id="xzs_y62n60LzMfR8loIl-21" value="&lt;font style=&quot;font-size: 14px&quot;&gt;Produer&lt;/font&gt;" style="text;html=1;strokeColor=none;fillColor=none;align=center;verticalAlign=middle;whiteSpace=wrap;rounded=0;" parent="1" vertex="1">
          <mxGeometry x="40" y="-240" width="70" height="20" as="geometry" />
        </mxCell>
        <mxCell id="xzs_y62n60LzMfR8loIl-22" value="" style="endArrow=classic;html=1;entryX=0.5;entryY=0;entryDx=0;entryDy=0;entryPerimeter=0;" parent="1" target="xzs_y62n60LzMfR8loIl-4" edge="1">
          <mxGeometry width="50" height="50" relative="1" as="geometry">
            <mxPoint x="-520" y="-200" as="sourcePoint" />
            <mxPoint x="-450" y="-60" as="targetPoint" />
          </mxGeometry>
        </mxCell>
        <mxCell id="xzs_y62n60LzMfR8loIl-23" value="" style="endArrow=classic;html=1;entryX=0.5;entryY=0;entryDx=0;entryDy=0;entryPerimeter=0;" parent="1" edge="1" target="xzs_y62n60LzMfR8loIl-11">
          <mxGeometry width="50" height="50" relative="1" as="geometry">
            <mxPoint x="-321" y="-200" as="sourcePoint" />
            <mxPoint x="-260" y="-72.00999999999999" as="targetPoint" />
          </mxGeometry>
        </mxCell>
        <mxCell id="xzs_y62n60LzMfR8loIl-24" value="" style="endArrow=classic;html=1;entryX=0.5;entryY=0;entryDx=0;entryDy=0;entryPerimeter=0;" parent="1" edge="1" target="xzs_y62n60LzMfR8loIl-11">
          <mxGeometry width="50" height="50" relative="1" as="geometry">
            <mxPoint x="-150" y="-200" as="sourcePoint" />
            <mxPoint x="-240" y="-72" as="targetPoint" />
          </mxGeometry>
        </mxCell>
        <mxCell id="xzs_y62n60LzMfR8loIl-25" value="" style="endArrow=classic;html=1;entryX=0.5;entryY=0;entryDx=0;entryDy=0;entryPerimeter=0;" parent="1" target="xzs_y62n60LzMfR8loIl-9" edge="1">
          <mxGeometry width="50" height="50" relative="1" as="geometry">
            <mxPoint x="50" y="-203" as="sourcePoint" />
            <mxPoint x="-30" y="-75" as="targetPoint" />
          </mxGeometry>
        </mxCell>
        <mxCell id="xzs_y62n60LzMfR8loIl-27" value="" style="ellipse;whiteSpace=wrap;html=1;fillColor=#f8cecc;strokeColor=#b85450;shadow=1;" parent="1" vertex="1">
          <mxGeometry x="-580" y="170" width="130" height="60" as="geometry" />
        </mxCell>
        <mxCell id="xzs_y62n60LzMfR8loIl-28" value="&lt;font style=&quot;font-size: 14px&quot;&gt;Consumer&lt;/font&gt;" style="text;html=1;strokeColor=none;fillColor=none;align=center;verticalAlign=middle;whiteSpace=wrap;rounded=0;" parent="1" vertex="1">
          <mxGeometry x="-555" y="190" width="80" height="20" as="geometry" />
        </mxCell>
        <mxCell id="xzs_y62n60LzMfR8loIl-29" value="" style="ellipse;whiteSpace=wrap;html=1;fillColor=#f8cecc;strokeColor=#b85450;shadow=1;" parent="1" vertex="1">
          <mxGeometry x="-390" y="170" width="130" height="60" as="geometry" />
        </mxCell>
        <mxCell id="xzs_y62n60LzMfR8loIl-30" value="&lt;font style=&quot;font-size: 14px&quot;&gt;Consumer&lt;/font&gt;" style="text;html=1;strokeColor=none;fillColor=none;align=center;verticalAlign=middle;whiteSpace=wrap;rounded=0;" parent="1" vertex="1">
          <mxGeometry x="-365" y="190" width="80" height="20" as="geometry" />
        </mxCell>
        <mxCell id="xzs_y62n60LzMfR8loIl-31" value="" style="ellipse;whiteSpace=wrap;html=1;fillColor=#f8cecc;strokeColor=#b85450;shadow=1;" parent="1" vertex="1">
          <mxGeometry x="-200" y="170" width="130" height="60" as="geometry" />
        </mxCell>
        <mxCell id="xzs_y62n60LzMfR8loIl-32" value="&lt;font style=&quot;font-size: 14px&quot;&gt;Consumer&lt;/font&gt;" style="text;html=1;strokeColor=none;fillColor=none;align=center;verticalAlign=middle;whiteSpace=wrap;rounded=0;" parent="1" vertex="1">
          <mxGeometry x="-175" y="190" width="80" height="20" as="geometry" />
        </mxCell>
        <mxCell id="xzs_y62n60LzMfR8loIl-33" value="" style="ellipse;whiteSpace=wrap;html=1;fillColor=#f8cecc;strokeColor=#b85450;shadow=1;sketch=0;" parent="1" vertex="1">
          <mxGeometry x="10" y="170" width="130" height="60" as="geometry" />
        </mxCell>
        <mxCell id="xzs_y62n60LzMfR8loIl-34" value="&lt;font style=&quot;font-size: 14px&quot;&gt;Consumer&lt;/font&gt;" style="text;html=1;strokeColor=none;fillColor=none;align=center;verticalAlign=middle;whiteSpace=wrap;rounded=0;" parent="1" vertex="1">
          <mxGeometry x="35" y="190" width="80" height="20" as="geometry" />
        </mxCell>
        <mxCell id="xzs_y62n60LzMfR8loIl-35" value="send" style="text;html=1;strokeColor=none;fillColor=none;align=center;verticalAlign=middle;whiteSpace=wrap;rounded=0;" parent="1" vertex="1">
          <mxGeometry x="20" y="-170" width="40" height="20" as="geometry" />
        </mxCell>
        <mxCell id="xzs_y62n60LzMfR8loIl-36" value="send" style="text;html=1;strokeColor=none;fillColor=none;align=center;verticalAlign=middle;whiteSpace=wrap;rounded=0;" parent="1" vertex="1">
          <mxGeometry x="-180" y="-170" width="40" height="20" as="geometry" />
        </mxCell>
        <mxCell id="xzs_y62n60LzMfR8loIl-37" value="send" style="text;html=1;strokeColor=none;fillColor=none;align=center;verticalAlign=middle;whiteSpace=wrap;rounded=0;" parent="1" vertex="1">
          <mxGeometry x="-340" y="-170" width="40" height="20" as="geometry" />
        </mxCell>
        <mxCell id="xzs_y62n60LzMfR8loIl-38" value="send" style="text;html=1;strokeColor=none;fillColor=none;align=center;verticalAlign=middle;whiteSpace=wrap;rounded=0;" parent="1" vertex="1">
          <mxGeometry x="-540" y="-170" width="40" height="20" as="geometry" />
        </mxCell>
        <mxCell id="xzs_y62n60LzMfR8loIl-39" value="" style="endArrow=classic;html=1;entryX=0.5;entryY=1;entryDx=0;entryDy=0;entryPerimeter=0;" parent="1" target="xzs_y62n60LzMfR8loIl-4" edge="1">
          <mxGeometry width="50" height="50" relative="1" as="geometry">
            <mxPoint x="-510" y="170" as="sourcePoint" />
            <mxPoint x="-460" y="120" as="targetPoint" />
          </mxGeometry>
        </mxCell>
        <mxCell id="xzs_y62n60LzMfR8loIl-40" value="" style="endArrow=classic;html=1;" parent="1" edge="1">
          <mxGeometry width="50" height="50" relative="1" as="geometry">
            <mxPoint x="-315" y="170" as="sourcePoint" />
            <mxPoint x="-250" y="50" as="targetPoint" />
          </mxGeometry>
        </mxCell>
        <mxCell id="xzs_y62n60LzMfR8loIl-41" value="" style="endArrow=classic;html=1;entryX=0.5;entryY=1;entryDx=0;entryDy=0;entryPerimeter=0;" parent="1" target="xzs_y62n60LzMfR8loIl-11" edge="1">
          <mxGeometry width="50" height="50" relative="1" as="geometry">
            <mxPoint x="-145" y="170" as="sourcePoint" />
            <mxPoint x="-230" y="60" as="targetPoint" />
          </mxGeometry>
        </mxCell>
        <mxCell id="xzs_y62n60LzMfR8loIl-42" value="" style="endArrow=classic;html=1;entryX=0.5;entryY=1;entryDx=0;entryDy=0;" parent="1" edge="1">
          <mxGeometry width="50" height="50" relative="1" as="geometry">
            <mxPoint x="60" y="170" as="sourcePoint" />
            <mxPoint x="-45" y="50" as="targetPoint" />
          </mxGeometry>
        </mxCell>
        <mxCell id="xzs_y62n60LzMfR8loIl-43" value="pull" style="text;html=1;strokeColor=none;fillColor=none;align=center;verticalAlign=middle;whiteSpace=wrap;rounded=0;" parent="1" vertex="1">
          <mxGeometry x="35" y="120" width="30" height="20" as="geometry" />
        </mxCell>
        <mxCell id="xzs_y62n60LzMfR8loIl-44" value="pull" style="text;html=1;strokeColor=none;fillColor=none;align=center;verticalAlign=middle;whiteSpace=wrap;rounded=0;" parent="1" vertex="1">
          <mxGeometry x="-180" y="120" width="30" height="20" as="geometry" />
        </mxCell>
        <mxCell id="xzs_y62n60LzMfR8loIl-45" value="pull" style="text;html=1;strokeColor=none;fillColor=none;align=center;verticalAlign=middle;whiteSpace=wrap;rounded=0;" parent="1" vertex="1">
          <mxGeometry x="-330" y="120" width="30" height="20" as="geometry" />
        </mxCell>
        <mxCell id="xzs_y62n60LzMfR8loIl-46" value="pull" style="text;html=1;strokeColor=none;fillColor=none;align=center;verticalAlign=middle;whiteSpace=wrap;rounded=0;" parent="1" vertex="1">
          <mxGeometry x="-520" y="120" width="30" height="20" as="geometry" />
        </mxCell>
        <mxCell id="xzs_y62n60LzMfR8loIl-47" value="" style="ellipse;shape=cloud;whiteSpace=wrap;html=1;fillColor=#dae8fc;strokeColor=#6c8ebf;" parent="1" vertex="1">
          <mxGeometry x="150" y="-80" width="270" height="140" as="geometry" />
        </mxCell>
        <mxCell id="xzs_y62n60LzMfR8loIl-48" value="&lt;font style=&quot;font-size: 16px&quot;&gt;Zookeeper&lt;br&gt;Cluster&lt;/font&gt;" style="text;html=1;strokeColor=none;fillColor=none;align=center;verticalAlign=middle;whiteSpace=wrap;rounded=0;" parent="1" vertex="1">
          <mxGeometry x="245" y="-20" width="80" height="40" as="geometry" />
        </mxCell>
        <mxCell id="xzs_y62n60LzMfR8loIl-67" value="&lt;font style=&quot;font-size: 14px&quot;&gt;生产者将消息发送到broker&lt;/font&gt;" style="text;html=1;strokeColor=none;fillColor=none;align=center;verticalAlign=middle;whiteSpace=wrap;rounded=0;shadow=1;sketch=0;" parent="1" vertex="1">
          <mxGeometry x="-640" y="-300" width="190" height="30" as="geometry" />
        </mxCell>
        <mxCell id="xzs_y62n60LzMfR8loIl-68" value="&lt;font style=&quot;font-size: 14px&quot;&gt;消费者采用拉(pull)模式订阅并消费消息&lt;/font&gt;" style="text;html=1;strokeColor=none;fillColor=none;align=center;verticalAlign=middle;whiteSpace=wrap;rounded=0;shadow=1;sketch=0;" parent="1" vertex="1">
          <mxGeometry x="-640" y="270" width="260" height="20" as="geometry" />
        </mxCell>
        <mxCell id="xzs_y62n60LzMfR8loIl-69" value="&lt;font style=&quot;font-size: 14px&quot;&gt;Kafka通过Zookeeper管理集群元数据&lt;/font&gt;" style="text;html=1;strokeColor=none;fillColor=none;align=center;verticalAlign=middle;whiteSpace=wrap;rounded=0;shadow=1;sketch=0;" parent="1" vertex="1">
          <mxGeometry x="200" y="-120" width="240" height="30" as="geometry" />
        </mxCell>
        <mxCell id="-4ugQde8DLiPdOh9Iu52-1" value="" style="endArrow=classic;html=1;exitX=0.07;exitY=0.4;exitDx=0;exitDy=0;exitPerimeter=0;entryX=0.5;entryY=0;entryDx=0;entryDy=0;entryPerimeter=0;curved=1;dashed=1;" edge="1" parent="1" source="xzs_y62n60LzMfR8loIl-47" target="xzs_y62n60LzMfR8loIl-4">
          <mxGeometry width="50" height="50" relative="1" as="geometry">
            <mxPoint x="240" y="170" as="sourcePoint" />
            <mxPoint x="290" y="120" as="targetPoint" />
            <Array as="points">
              <mxPoint x="-110" y="-150" />
            </Array>
          </mxGeometry>
        </mxCell>
        <mxCell id="-4ugQde8DLiPdOh9Iu52-2" value="" style="endArrow=classic;html=1;dashed=1;exitX=0.07;exitY=0.4;exitDx=0;exitDy=0;exitPerimeter=0;curved=1;entryX=0.42;entryY=-0.008;entryDx=0;entryDy=0;entryPerimeter=0;" edge="1" parent="1" source="xzs_y62n60LzMfR8loIl-47" target="xzs_y62n60LzMfR8loIl-11">
          <mxGeometry width="50" height="50" relative="1" as="geometry">
            <mxPoint x="-130" y="130" as="sourcePoint" />
            <mxPoint x="-250" y="-73" as="targetPoint" />
            <Array as="points">
              <mxPoint y="-110" />
            </Array>
          </mxGeometry>
        </mxCell>
        <mxCell id="-4ugQde8DLiPdOh9Iu52-3" value="" style="endArrow=classic;html=1;dashed=1;exitX=0.07;exitY=0.4;exitDx=0;exitDy=0;exitPerimeter=0;entryX=0.5;entryY=0;entryDx=0;entryDy=0;entryPerimeter=0;" edge="1" parent="1" source="xzs_y62n60LzMfR8loIl-47" target="xzs_y62n60LzMfR8loIl-9">
          <mxGeometry width="50" height="50" relative="1" as="geometry">
            <mxPoint x="-130" y="130" as="sourcePoint" />
            <mxPoint x="-80" y="80" as="targetPoint" />
          </mxGeometry>
        </mxCell>
      </root>
    </mxGraphModel>
  </diagram>
</mxfile>
